<?xml version="1.0" encoding="UTF-8" standalone="no"?>
<svg xmlns="http://www.w3.org/2000/svg" fill="none" height="24" viewBox="0 0 24 24" width="24">
  
  <path d="M23.9 11.9C23.9 5.3 18.5 0 11.9 0C5.3 0 0 5.3 0 11.9C0 17.9 4.4 22.8 10.1 23.7V15.4H7V12H10V9.3C10 6.3 11.8 4.7 14.5 4.7C15.8 4.7 17.2 4.9 17.2 4.9V7.8H15.7C14.2 7.8 13.8 8.7 13.8 9.7V11.9H17.1L16.6 15.3H13.8V23.6C19.5 22.8 23.9 17.9 23.9 11.9Z" fill="#999999"/>
  
  <path d="M16.6 15.4L17.1 12H13.8V9.7C13.8 8.8 14.3 7.8 15.7 7.8H17.2V4.9C17.2 4.9 15.8 4.7 14.5 4.7C11.8 4.7 10 6.4 10 9.3V11.9H7V15.3H10V23.6C10.6 23.7 11.2 23.7 11.9 23.7C12.6 23.7 13.2 23.7 13.8 23.6V15.3H16.6V15.4Z" fill="white"/>
  
</svg>
