<?xml version="1.0" encoding="UTF-8" standalone="no"?>
<svg xmlns="http://www.w3.org/2000/svg" xmlns:xlink="http://www.w3.org/1999/xlink" viewBox="0 0 96 96">
    
  <defs>
        
    <style>
      .cls-1 {
        fill: none;
      }

      .cls-1, .cls-2, .cls-3, .cls-4, .cls-5 {
        stroke-width: 0px;
      }

      .cls-2 {
        fill: url(#linear-gradient);
      }

      .cls-3 {
        fill: #960000;
      }

      .cls-4 {
        fill: #de2015;
      }

      .cls-5 {
        fill: #fbfbfb;
      }
    </style>
        
    <linearGradient gradientUnits="userSpaceOnUse" id="linear-gradient" x1="63.84" x2="73.05" y1="56.89" y2="41.82">
            
      <stop offset="0" stop-color="#de2015"/>
            
      <stop offset="1" stop-color="#960000"/>
          
    </linearGradient>
      
  </defs>
    
  <g id="file">
        
    <path class="cls-4" d="M77.91,35.9c0-8.92-3.92-16.94-10.11-22.44l-3.29,5.12c4.56,4.37,7.41,10.52,7.41,17.32,0,13.24-10.77,24.01-24.01,24.01s-24.01-10.77-24.01-24.01,10.77-24.01,24.01-24.01c2.61,0,5.11.42,7.46,1.19l3.33-5.18c-3.35-1.3-6.99-2.02-10.79-2.02-16.55,0-30.01,13.46-30.01,30.01,0,7.44,2.72,14.24,7.22,19.49v34.54l22.68-10.66,22.93,10.64v-34.54c4.48-5.24,7.2-12.04,7.2-19.47ZM47.77,72.65l-16.66,7.83v-19.72c4.8,3.25,10.58,5.15,16.79,5.15s12.01-1.91,16.81-5.17v19.76l-16.95-7.86Z"/>
        
    <path class="cls-2" d="M64.68,60.79l-3.36-4.97c6.63-4.48,10.59-11.92,10.59-19.91,0-.83-.04-1.66-.13-2.49l5.97-.61c.11,1.03.16,2.07.16,3.1,0,9.98-4.95,19.29-13.23,24.88Z"/>
        
    <g>
            
      <path class="cls-3" d="M90.05,21.52c0,8.46-6.86,15.32-15.32,15.32s-15.32-6.86-15.32-15.32,6.86-15.32,15.32-15.32,15.32,6.86,15.32,15.32Z"/>
            
      <path class="cls-5" d="M63.4,11.13h13.71c3.13,0,5.3.82,6.68,2.23,1.2,1.17,1.81,2.75,1.81,4.77v.06c0,3.13-1.67,5.21-4.22,6.3l4.89,7.15h-6.56l-4.13-6.21h-2.49v6.21h-5.68V14.52s-4.01-3.39-4.01-3.39ZM76.85,20.97c1.93,0,3.05-.94,3.05-2.43v-.06c0-1.61-1.17-2.43-3.07-2.43h-3.72v4.92h3.75Z"/>
          
    </g>
      
  </g>
    
  <g id="Frame">
        
    <rect class="cls-1" height="96" width="96" x=".03" y="-.04"/>
      
  </g>
  
</svg>
