<svg width="57" height="56" viewBox="0 0 57 56" fill="none" xmlns="http://www.w3.org/2000/svg">
<path d="M42.5808 14.0758L40.9299 17.1616L44.7916 19.2266C44.4008 41.44 31.5791 47.6466 28.8491 48.7141C25.9324 47.6758 11.7574 41.5333 11.3024 19.285L28.8841 10.9958L32.2208 12.5416V8.6858L28.8491 7.1283L7.79077 17.0741V18.1825C7.79077 32.725 13.3383 41.195 17.9874 45.7391C23.0799 50.715 28.1899 52.1558 28.4058 52.2433L28.9016 52.3833L29.3916 52.2316C30.1616 51.9983 48.2974 46.1066 48.2974 18.1825V17.1325L42.5808 14.0758Z" fill="#ED1C24"/>
<path d="M45.4215 35.2508L42.1374 33.9908C43.8697 29.2606 44.762 24.2641 44.774 19.2266L40.9124 17.1616L42.5632 14.0758L48.2799 17.1325V18.1825C48.2974 24.5525 47.329 30.2925 45.4215 35.2508Z" fill="url(#paint0_linear_3796:50298)"/>
<path d="M53.2498 12.5767C53.2486 14.3439 52.7235 16.0712 51.7409 17.54C50.7582 19.0089 49.3621 20.1534 47.729 20.8289C46.0959 21.5044 44.2993 21.6805 42.5661 21.3351C40.8329 20.9896 39.2411 20.138 37.9919 18.8879C36.7427 17.6379 35.8921 16.0455 35.5478 14.3121C35.2034 12.5787 35.3807 10.7822 36.0573 9.14956C36.7339 7.51694 37.8793 6.12157 39.3488 5.13985C40.8183 4.15813 42.5459 3.63416 44.3131 3.63416C45.4872 3.63416 46.6498 3.8655 47.7344 4.31498C48.819 4.76445 49.8045 5.42324 50.6344 6.25371C51.4643 7.08417 52.1224 8.07003 52.5712 9.15495C53.02 10.2399 53.2506 11.4026 53.2498 12.5767Z" fill="#990000"/>
<path d="M37.7041 6.51587H45.7016C47.5333 6.51587 48.7933 6.9942 49.5983 7.8167C49.9581 8.18179 50.2383 8.6176 50.4211 9.09656C50.6038 9.57551 50.6851 10.0872 50.6599 10.5992V10.6342C50.6858 11.4273 50.4621 12.2086 50.0205 12.8679C49.5789 13.5272 48.9415 14.0313 48.1983 14.3092L51.0508 18.4742H47.2241L44.8149 14.8517H43.3624V18.4742H40.0491V8.49337L37.7041 6.51587ZM45.5499 12.2734C46.6758 12.2734 47.2999 11.725 47.2999 10.8559V10.8209C47.2999 9.8817 46.6174 9.40337 45.5091 9.40337H43.3624V12.2734H45.5499Z" fill="white"/>
<defs>
<linearGradient id="paint0_linear_3796:50298" x1="44.6165" y1="34.1833" x2="44.6165" y2="25.3575" gradientUnits="userSpaceOnUse">
<stop stop-color="#E12015"/>
<stop offset="1" stop-color="#990000"/>
</linearGradient>
</defs>
</svg>
