<?xml version="1.0" encoding="UTF-8" standalone="no"?>
<svg xmlns="http://www.w3.org/2000/svg" xmlns:xlink="http://www.w3.org/1999/xlink" height="24" viewBox="0,0,256,256" width="24">
  <g transform="translate(25.6,25.6) scale(0.8,0.8)">
    <g fill="#999999" fill-rule="nonzero" font-family="none" font-size="none" font-weight="none" stroke="none" stroke-dasharray="" stroke-dashoffset="0" stroke-linecap="butt" stroke-linejoin="miter" stroke-miterlimit="10" stroke-width="1" style="mix-blend-mode: normal" text-anchor="none">
      <path d="M128,288c-88.36556,0 -160,-71.63444 -160,-160v0c0,-88.36556 71.63444,-160 160,-160v0c88.36556,0 160,71.63444 160,160v0c0,88.36556 -71.63444,160 -160,160z" id="shape"/>
    </g>
    <g fill="#ffffff" fill-rule="none" font-family="none" font-size="none" font-weight="none" stroke="none" stroke-dasharray="" stroke-dashoffset="0" stroke-linecap="butt" stroke-linejoin="miter" stroke-miterlimit="10" stroke-width="1" style="mix-blend-mode: normal" text-anchor="none">
      <g transform="scale(5.33333,5.33333)">
        <path d="M41,6l-31.071,36h-3.714l31.072,-36z" fill-rule="nonzero"/>
        <path d="M31.143,41l-23.323,-34h8.957l23.323,34z" fill-rule="evenodd"/>
        <path d="M15.724,9l20.578,30h-4.106l-20.578,-30h4.106M17.304,6h-11.382l24.694,36h11.382l-24.694,-36z" fill-rule="nonzero"/>
      </g>
    </g>
  </g>
</svg>
